<svg width="48" height="48" viewBox="0 0 48 48" fill="none" xmlns="http://www.w3.org/2000/svg">
<path d="M33.0316 9.45824H25.0272L24.0133 10.5098L37.0072 32.0152L40.2356 37.3784H24.4936L25.801 38.6667H45.3585L48 34.2499L33.0316 9.45824Z" fill="#0A0A0A"/>
<path d="M14.995 9.45824H22.9727L24.0133 10.5098L10.9927 32.0152L7.76427 37.3784H23.533L22.2256 38.6667H2.66811L-3.8147e-05 34.2499L14.995 9.45824Z" fill="#0A0A0A"/>
<path d="M29.6164 28.1768V27.2041C28.2578 27.2041 26.9547 26.6723 25.994 25.7256C25.0333 24.779 24.4936 23.4951 24.4936 22.1564H23.5063C23.5063 22.8192 23.3738 23.4756 23.1164 24.088C22.859 24.7005 22.4816 25.2569 22.0059 25.7256C21.5302 26.1944 20.9655 26.5662 20.3439 26.8198C19.7224 27.0735 19.0563 27.2041 18.3835 27.2041V28.1768C19.0563 28.1768 19.7224 28.3074 20.3439 28.5611C20.9655 28.8147 21.5302 29.1865 22.0059 29.6553C22.4816 30.124 22.859 30.6804 23.1164 31.2929C23.3738 31.9053 23.5063 32.5617 23.5063 33.2245H24.4936C24.4936 31.8858 25.0333 30.6019 25.994 29.6553C26.9547 28.7086 28.2578 28.1768 29.6164 28.1768Z" fill="#0A0A0A"/>
</svg>
